<svg width="28" height="28" fill="none" xmlns="http://www.w3.org/2000/svg">
 <rect width="28" height="28" rx="14" fill="#FFFFFF" />
<g transform="translate(0.000000,1197.000000) scale(0.100000,-0.100000)"
fill="#000000" stroke="none">
<path d="M16754 11890 c-685 -41 -1287 -325 -1627 -767 -200 -261 -294 -508
-318 -831 -20 -279 29 -532 151 -787 164 -341 436 -606 814 -790 184 -90 249
-113 886 -311 697 -217 834 -269 1017 -390 241 -160 348 -428 287 -722 -32
-154 -92 -261 -213 -374 -208 -197 -522 -293 -997 -305 -395 -11 -807 44
-1184 158 -74 22 -236 81 -360 131 -197 80 -234 91 -301 96 -73 4 -77 3 -111
-27 -22 -19 -40 -47 -47 -74 -16 -56 -10 -516 7 -569 61 -185 356 -338 922
-477 401 -99 631 -126 1065 -126 286 1 348 4 465 22 480 75 871 223 1160 439
480 357 721 858 697 1449 -6 158 -25 267 -69 405 -112 349 -334 622 -669 821
-246 147 -331 177 -1534 556 -118 37 -307 114 -415 168 -270 135 -412 283
-466 485 -26 97 -23 272 5 375 84 304 323 470 781 542 160 25 617 25 805 -1
332 -45 527 -101 910 -262 67 -27 109 -38 162 -42 72 -5 73 -4 107 30 53 53
58 89 54 362 -3 232 -4 243 -28 291 -45 91 -153 180 -305 251 -284 131 -806
248 -1225 274 -171 10 -247 10 -426 0z"/>
<path d="M3030 11870 c-440 -41 -939 -166 -1317 -330 -171 -74 -275 -134 -323
-186 -63 -68 -70 -109 -70 -398 0 -266 6 -313 45 -352 55 -55 138 -42 399 61
398 157 789 262 1112 300 148 17 512 20 649 5 404 -45 671 -164 825 -367 123
-162 201 -396 230 -692 10 -99 15 -761 6 -761 -3 0 -78 16 -168 35 -547 119
-918 161 -1360 152 -307 -6 -450 -23 -685 -82 -744 -187 -1269 -696 -1402
-1360 -88 -439 -36 -907 141 -1259 79 -158 160 -269 298 -406 219 -219 444
-344 755 -421 440 -108 978 -81 1411 72 349 122 634 307 925 598 l166 166 84
-165 c95 -186 185 -326 287 -449 121 -144 219 -191 334 -157 73 21 513 311
574 378 90 97 86 155 -23 378 -89 182 -163 363 -186 455 -54 215 -59 328 -67
1700 -7 1296 -8 1302 -51 1545 -107 610 -398 1043 -858 1278 -248 127 -499
200 -851 248 -145 19 -722 28 -880 14z m880 -3334 c171 -20 465 -69 595 -100
l100 -23 -1 -229 c-3 -579 -90 -845 -368 -1119 -177 -175 -337 -274 -573 -351
-530 -175 -1020 -142 -1291 86 -129 109 -209 240 -259 425 -25 93 -27 115 -27
305 -1 180 2 216 22 293 58 232 174 400 362 526 167 111 308 156 645 205 74
11 667 -3 795 -18z"/>
<path d="M6420 11721 c-110 -23 -139 -117 -91 -298 47 -181 1594 -5251 1623
-5322 42 -101 103 -163 184 -188 53 -16 101 -18 439 -18 277 0 395 4 437 13
102 24 163 87 207 215 11 31 247 1009 526 2174 278 1165 509 2126 513 2136 5
12 193 -752 526 -2140 380 -1582 526 -2176 549 -2226 36 -80 96 -140 159 -159
32 -10 143 -13 453 -13 365 0 415 2 460 18 72 25 117 66 158 144 52 101 1684
5336 1699 5453 10 78 10 89 -9 132 -37 82 -40 82 -399 86 -492 6 -586 -12
-658 -120 -19 -29 -46 -83 -60 -119 -14 -37 -280 -1054 -591 -2260 -600 -2324
-573 -2224 -579 -2218 -2 2 -241 1010 -531 2239 -305 1292 -538 2258 -552
2289 -77 176 -154 197 -683 188 -259 -4 -302 -7 -357 -24 -89 -29 -117 -54
-158 -136 -43 -88 -8 59 -601 -2462 -262 -1117 -480 -2033 -483 -2037 -3 -4
-255 975 -560 2175 -364 1434 -566 2213 -589 2272 -44 110 -94 165 -174 191
-45 14 -109 17 -438 20 -212 1 -401 -1 -420 -5z"/>
</g>
  <defs>
    <clipPath id="a">
      <path fill="#fff" transform="translate(6 6)" d="M0 0h16v16H0z" />
    </clipPath>
  </defs>
</svg>
